<svg width="175" height="45" viewBox="0 0 175 45" fill="none"
    xmlns="http://www.w3.org/2000/svg">
    <rect x="1.48096" y="0.5" width="173" height="44" rx="22" fill="white" stroke="#DFDFE0"/>
    <path d="M46.35 27.203C46.8726 27.203 47.351 27.0957 47.785 26.881C48.219 26.6663 48.569 26.328 48.835 25.866C49.0263 25.5393 49.129 25.222 49.143 24.914C49.157 24.6013 49.164 24.221 49.164 23.773V16.92H47.68V23.773C47.68 24.067 47.673 24.3237 47.659 24.543C47.645 24.7577 47.5983 24.9467 47.519 25.11C47.4023 25.3667 47.225 25.551 46.987 25.663C46.749 25.7703 46.5203 25.824 46.301 25.824C45.965 25.824 45.664 25.7143 45.398 25.495C45.132 25.271 44.9663 25.0027 44.901 24.69L43.452 25.033C43.6433 25.6957 43.9886 26.223 44.488 26.615C44.992 27.007 45.6126 27.203 46.35 27.203ZM54.3969 27.21C55.1483 27.21 55.8016 27.042 56.3569 26.706C56.9123 26.3653 57.3416 25.8963 57.6449 25.299C57.9529 24.697 58.1069 24.0017 58.1069 23.213C58.1069 22.4337 57.9553 21.7453 57.6519 21.148C57.3486 20.546 56.9193 20.077 56.3639 19.741C55.8086 19.4003 55.1529 19.23 54.3969 19.23C53.6549 19.23 53.0063 19.398 52.4509 19.734C51.8956 20.07 51.4639 20.5367 51.1559 21.134C50.8479 21.7313 50.6939 22.4243 50.6939 23.213C50.6939 23.9923 50.8456 24.683 51.1489 25.285C51.4523 25.887 51.8793 26.3583 52.4299 26.699C52.9853 27.0397 53.6409 27.21 54.3969 27.21ZM54.3969 25.831C53.6923 25.831 53.1579 25.5953 52.7939 25.124C52.4299 24.648 52.2479 24.011 52.2479 23.213C52.2479 22.443 52.4229 21.8177 52.7729 21.337C53.1229 20.8517 53.6643 20.609 54.3969 20.609C55.1109 20.609 55.6476 20.8447 56.0069 21.316C56.3709 21.7873 56.5529 22.4197 56.5529 23.213C56.5529 23.9877 56.3733 24.6177 56.0139 25.103C55.6593 25.5883 55.1203 25.831 54.3969 25.831ZM59.4842 27H60.9682V23.066C60.9682 22.4687 61.0545 21.9927 61.2272 21.638C61.4045 21.2787 61.6378 21.0197 61.9272 20.861C62.2165 20.7023 62.5362 20.623 62.8862 20.623C63.2875 20.623 63.6142 20.7047 63.8662 20.868C64.1182 21.0313 64.3118 21.246 64.4472 21.512C64.5825 21.778 64.6735 22.0673 64.7202 22.38C64.7715 22.688 64.7972 22.989 64.7972 23.283V27H66.2812V22.8C66.2812 22.5667 66.2602 22.296 66.2182 21.988C66.1762 21.68 66.0968 21.365 65.9802 21.043C65.8635 20.721 65.6932 20.4247 65.4692 20.154C65.2498 19.8787 64.9628 19.657 64.6082 19.489C64.2535 19.321 63.8148 19.237 63.2922 19.237C62.7462 19.237 62.2608 19.335 61.8362 19.531C61.4162 19.727 61.0685 19.9977 60.7932 20.343V16.92H59.4842V27ZM67.9434 27H69.4274V23.066C69.4274 22.4687 69.5138 21.9927 69.6864 21.638C69.8638 21.2787 70.0971 21.0197 70.3864 20.861C70.6758 20.7023 70.9954 20.623 71.3454 20.623C71.7468 20.623 72.0734 20.7047 72.3254 20.868C72.5774 21.0313 72.7711 21.246 72.9064 21.512C73.0418 21.778 73.1328 22.0673 73.1794 22.38C73.2308 22.688 73.2564 22.989 73.2564 23.283V27H74.7404V22.8C74.7404 22.5667 74.7194 22.296 74.6774 21.988C74.6354 21.68 74.5561 21.365 74.4394 21.043C74.3228 20.721 74.1524 20.4247 73.9284 20.154C73.7091 19.8787 73.4221 19.657 73.0674 19.489C72.7128 19.321 72.2741 19.237 71.7514 19.237C71.2054 19.237 70.7201 19.335 70.2954 19.531C69.8754 19.727 69.5278 19.9977 69.2524 20.343V19.44H67.9434V27ZM79.317 27.21C79.793 27.21 80.2177 27.1307 80.591 26.972C80.969 26.8133 81.2957 26.5917 81.571 26.307V27H82.873V16.92H81.403V19.958C81.1417 19.7247 80.8384 19.545 80.493 19.419C80.1477 19.293 79.765 19.23 79.345 19.23C78.6357 19.23 78.022 19.405 77.504 19.755C76.9907 20.1003 76.594 20.574 76.314 21.176C76.034 21.7733 75.894 22.4523 75.894 23.213C75.894 23.969 76.0317 24.648 76.307 25.25C76.587 25.852 76.9837 26.3303 77.497 26.685C78.0104 27.035 78.617 27.21 79.317 27.21ZM79.52 25.887C79.0534 25.887 78.666 25.768 78.358 25.53C78.05 25.292 77.8214 24.9723 77.672 24.571C77.5227 24.165 77.448 23.7123 77.448 23.213C77.448 22.7183 77.5227 22.2703 77.672 21.869C77.826 21.4677 78.0594 21.148 78.372 20.91C78.6847 20.672 79.0837 20.553 79.569 20.553C80.2597 20.553 80.766 20.8003 81.088 21.295C81.41 21.7897 81.571 22.429 81.571 23.213C81.571 23.997 81.41 24.6387 81.088 25.138C80.766 25.6373 80.2434 25.887 79.52 25.887ZM87.9606 27.21C88.7119 27.21 89.3653 27.042 89.9206 26.706C90.4759 26.3653 90.9053 25.8963 91.2086 25.299C91.5166 24.697 91.6706 24.0017 91.6706 23.213C91.6706 22.4337 91.5189 21.7453 91.2156 21.148C90.9123 20.546 90.4829 20.077 89.9276 19.741C89.3723 19.4003 88.7166 19.23 87.9606 19.23C87.2186 19.23 86.5699 19.398 86.0146 19.734C85.4593 20.07 85.0276 20.5367 84.7196 21.134C84.4116 21.7313 84.2576 22.4243 84.2576 23.213C84.2576 23.9923 84.4093 24.683 84.7126 25.285C85.0159 25.887 85.4429 26.3583 85.9936 26.699C86.5489 27.0397 87.2046 27.21 87.9606 27.21ZM87.9606 25.831C87.2559 25.831 86.7216 25.5953 86.3576 25.124C85.9936 24.648 85.8116 24.011 85.8116 23.213C85.8116 22.443 85.9866 21.8177 86.3366 21.337C86.6866 20.8517 87.2279 20.609 87.9606 20.609C88.6746 20.609 89.2113 20.8447 89.5706 21.316C89.9346 21.7873 90.1166 22.4197 90.1166 23.213C90.1166 23.9877 89.9369 24.6177 89.5776 25.103C89.2229 25.5883 88.6839 25.831 87.9606 25.831ZM96.4079 27.21C97.1405 27.21 97.8055 27.0257 98.4029 26.657C99.0002 26.2837 99.4459 25.7587 99.7399 25.082L98.3049 24.627C97.9222 25.4297 97.2665 25.831 96.3379 25.831C95.7032 25.831 95.2039 25.6397 94.8399 25.257C94.4759 24.8743 94.2635 24.333 94.2029 23.633H99.8379C99.8892 22.7277 99.7819 21.946 99.5159 21.288C99.2499 20.63 98.8462 20.1237 98.3049 19.769C97.7635 19.4097 97.1079 19.23 96.3379 19.23C95.6005 19.23 94.9542 19.3957 94.3989 19.727C93.8435 20.0583 93.4095 20.5273 93.0969 21.134C92.7889 21.7407 92.6349 22.457 92.6349 23.283C92.6349 24.0623 92.7912 24.7483 93.1039 25.341C93.4212 25.929 93.8622 26.3887 94.4269 26.72C94.9962 27.0467 95.6565 27.21 96.4079 27.21ZM96.3939 20.525C97.5372 20.525 98.1859 21.1807 98.3399 22.492H94.2379C94.3312 21.8527 94.5575 21.365 94.9169 21.029C95.2762 20.693 95.7685 20.525 96.3939 20.525ZM101.233 27H102.78V25.453H101.233V27ZM104.826 27H106.31V23.066C106.31 22.4687 106.396 21.9927 106.569 21.638C106.746 21.2787 106.979 21.0197 107.269 20.861C107.558 20.7023 107.878 20.623 108.228 20.623C108.629 20.623 108.956 20.7047 109.208 20.868C109.46 21.0313 109.653 21.246 109.789 21.512C109.924 21.778 110.015 22.0673 110.062 22.38C110.113 22.688 110.139 22.989 110.139 23.283V27H111.623V22.8C111.623 22.5667 111.602 22.296 111.56 21.988C111.518 21.68 111.438 21.365 111.322 21.043C111.205 20.721 111.035 20.4247 110.811 20.154C110.591 19.8787 110.304 19.657 109.95 19.489C109.595 19.321 109.156 19.237 108.634 19.237C108.088 19.237 107.602 19.335 107.178 19.531C106.758 19.727 106.41 19.9977 106.135 20.343V19.44H104.826V27ZM116.549 27.21C117.282 27.21 117.947 27.0257 118.544 26.657C119.142 26.2837 119.587 25.7587 119.881 25.082L118.446 24.627C118.064 25.4297 117.408 25.831 116.479 25.831C115.845 25.831 115.345 25.6397 114.981 25.257C114.617 24.8743 114.405 24.333 114.344 23.633H119.979C120.031 22.7277 119.923 21.946 119.657 21.288C119.391 20.63 118.988 20.1237 118.446 19.769C117.905 19.4097 117.249 19.23 116.479 19.23C115.742 19.23 115.096 19.3957 114.54 19.727C113.985 20.0583 113.551 20.5273 113.238 21.134C112.93 21.7407 112.776 22.457 112.776 23.283C112.776 24.0623 112.933 24.7483 113.245 25.341C113.563 25.929 114.004 26.3887 114.568 26.72C115.138 27.0467 115.798 27.21 116.549 27.21ZM116.535 20.525C117.679 20.525 118.327 21.1807 118.481 22.492H114.379C114.473 21.8527 114.699 21.365 115.058 21.029C115.418 20.693 115.91 20.525 116.535 20.525ZM123.394 27.21C124.598 27.21 125.506 26.7737 126.117 25.901V27H127.412V22.345C127.412 22.0277 127.398 21.7313 127.37 21.456C127.342 21.1807 127.268 20.9193 127.146 20.672C126.913 20.1727 126.544 19.8087 126.04 19.58C125.541 19.3467 124.953 19.23 124.276 19.23C123.404 19.23 122.704 19.4213 122.176 19.804C121.649 20.1867 121.294 20.7023 121.112 21.351L122.477 21.771C122.608 21.351 122.839 21.0477 123.17 20.861C123.502 20.6743 123.866 20.581 124.262 20.581C124.85 20.581 125.275 20.707 125.536 20.959C125.802 21.2063 125.947 21.5913 125.97 22.114C125.354 22.198 124.752 22.2867 124.164 22.38C123.576 22.4687 123.063 22.576 122.624 22.702C122.041 22.8887 121.598 23.1663 121.294 23.535C120.991 23.9037 120.839 24.3727 120.839 24.942C120.839 25.3527 120.935 25.7307 121.126 26.076C121.322 26.4167 121.609 26.692 121.987 26.902C122.37 27.1073 122.839 27.21 123.394 27.21ZM123.653 26.013C123.187 26.013 122.841 25.9057 122.617 25.691C122.398 25.4763 122.288 25.222 122.288 24.928C122.288 24.6293 122.386 24.3937 122.582 24.221C122.783 24.0483 123.033 23.9107 123.331 23.808C123.649 23.7147 124.022 23.633 124.451 23.563C124.885 23.493 125.387 23.416 125.956 23.332C125.952 23.5093 125.94 23.7077 125.921 23.927C125.903 24.1463 125.863 24.3423 125.802 24.515C125.746 24.7623 125.627 25.0003 125.445 25.229C125.268 25.4577 125.028 25.6467 124.724 25.796C124.426 25.9407 124.069 26.013 123.653 26.013ZM129.076 27H130.553V23.185C130.553 22.7417 130.623 22.331 130.763 21.953C130.903 21.575 131.15 21.2717 131.505 21.043C131.757 20.8797 132.035 20.784 132.338 20.756C132.641 20.728 132.914 20.7467 133.157 20.812V19.44C132.816 19.3747 132.455 19.377 132.072 19.447C131.694 19.517 131.363 19.657 131.078 19.867C130.798 20.0537 130.565 20.3127 130.378 20.644V19.44H129.076V27Z" fill="#33373B"/>
    <path d="M158.791 20H150.96C150.14 20 149.668 20.9329 150.155 21.5932L154.071 26.9074C154.47 27.4498 155.281 27.4498 155.681 26.9074L159.596 21.5932C160.083 20.9329 159.612 20 158.791 20Z" fill="#C4C4C4"/>
    <circle cx="21.981" cy="23" r="14" fill="white" stroke="#33373B" stroke-width="2"/>
    <circle cx="21.9809" cy="23" r="10.8333" fill="#C4C4C4"/>
    <mask id="mask0_4439_908" style="mask-type:alpha" maskUnits="userSpaceOnUse" x="11" y="12" width="22" height="22">
        <circle cx="21.9809" cy="23" r="10.8333" fill="#C4C4C4"/>
    </mask>
    <g mask="url(#mask0_4439_908)">
        <rect x="-15.0965" y="22.5174" width="33.1429" height="32" rx="6" transform="rotate(-34 -15.0965 22.5174)" fill="#39C0BA"/>
        <rect x="16.3412" y="32.3379" width="33.1429" height="32" rx="6" transform="rotate(-79 16.3412 32.3379)" fill="#FFCE20"/>
        <rect x="37.0107" y="60.938" width="33.1429" height="32" rx="6" transform="rotate(-112 37.0107 60.938)" fill="#BB85FF"/>
        <rect x="27.8697" y="66.1181" width="33.1429" height="32" rx="6" transform="rotate(-154 27.8697 66.1181)" fill="#FF8B20"/>
    </g>
</svg>
