<svg width="18" height="22" viewBox="0 0 18 22" fill="none"
    xmlns="http://www.w3.org/2000/svg">
    <path d="M9.76204 3.41993L8.17387 3.41668C4.5512 3.40801 1.40629 6.35143 1.38137 9.91668V14.0225C1.38137 14.8783 1.27304 15.7136 0.806121 16.4253L0.495204 16.8998C0.0217875 17.6192 0.530954 18.5833 1.38137 18.5833H16.5805C17.431 18.5833 17.939 17.6192 17.4667 16.8998L17.1558 16.4253C16.69 15.7136 16.5805 14.8773 16.5805 14.0214V9.91776C16.5372 6.35143 13.3847 3.42859 9.76204 3.41993Z" fill="#BEBEC2"/>
    <path d="M12.231 18.5833C12.231 19.4453 11.8885 20.2719 11.2791 20.8814C10.6696 21.4909 9.84291 21.8333 8.98096 21.8333C8.119 21.8333 7.29235 21.4909 6.68286 20.8814C6.07337 20.2719 5.73096 19.4453 5.73096 18.5833" fill="#6F6E73"/>
    <path d="M8.98095 0.166656C9.55559 0.166656 10.1067 0.39493 10.513 0.801258C10.9193 1.20759 11.1476 1.75869 11.1476 2.33332V3.41666H6.81429V2.33332C6.81429 1.75869 7.04256 1.20759 7.44889 0.801258C7.85522 0.39493 8.40632 0.166656 8.98095 0.166656Z" fill="#6F6E73"/>
</svg>
